<svg xmlns="http://www.w3.org/2000/svg" width="25px" height="25px" viewBox="0 0 24 24"><path fill="none" stroke="#60a5fa" strokeLinecap="round" strokeLinejoin="round" strokeWidth="1.3" d="M18 12h1.874c.6 0 1.087.487 1.087 1.087v7.076c0 .6-.487 1.087-1.087 1.087h-1.873c-.6 0-1.087-.487-1.087-1.087v-7.076c0-.6.487-1.087 1.087-1.087m-6.938-4.625h1.874c.6 0 1.086.487 1.086 1.087v11.701c0 .6-.486 1.087-1.086 1.087h-1.874c-.6 0-1.086-.487-1.086-1.087V8.462c0-.6.486-1.087 1.086-1.087M4.126 2.75h1.873c.6 0 1.087.487 1.087 1.087v16.326c0 .6-.487 1.087-1.087 1.087H4.126c-.6 0-1.087-.487-1.087-1.087V3.837c0-.6.487-1.087 1.087-1.087"/></svg>